<svg xmlns="http://www.w3.org/2000/svg" style="display:none;">
  <symbol id="map-pin" width="17" height="20" viewBox="0 0 17 20" fill="none">
    <path d="M16 8.36364C16 14.0909 8.5 19 8.5 19C8.5 19 1 14.0909 1 8.36364C1 6.41068 1.79018 4.53771 3.1967 3.15676C4.60322 1.77581 6.51088 1 8.5 1C10.4891 1 12.3968 1.77581 13.8033 3.15676C15.2098 4.53771 16 6.41068 16 8.36364Z" stroke="#B3B3B3" stroke-linecap="round" stroke-linejoin="round"/>
    <path d="M8.5 10.8182C9.88071 10.8182 11 9.71925 11 8.36364C11 7.00803 9.88071 5.90909 8.5 5.90909C7.11929 5.90909 6 7.00803 6 8.36364C6 9.71925 7.11929 10.8182 8.5 10.8182Z" stroke="#B3B3B3" stroke-linecap="round" stroke-linejoin="round"/>
  </symbol>

  <symbol id="arrow-down" width="9" height="6" viewBox="0 0 9 6" fill="none">
    <path d="M8 1.25L4.5 4.75L1 1.25" stroke="#B3B3B3" stroke-linecap="round" stroke-linejoin="round"/>
  </symbol>

  <symbol id="logo" width="183" height="39" viewBox="0 0 183 39" fill="none">
    <path d="M31.2749 7.8428C27.4022 7.8428 21.9311 8.16683 19.1352 10.9613C17.9247 12.1718 17.3202 14.1451 17.4771 16.3787C17.4975 16.6737 17.6937 16.925 17.9756 17.0181C18.256 17.1096 18.5641 17.0239 18.7559 16.7987C20.3108 14.9691 22.2435 13.5029 24.5046 12.4406C24.6964 12.3491 24.9231 12.3418 25.1295 12.4145C25.3111 12.4799 25.4535 12.6033 25.5276 12.7618C25.6816 13.0873 25.6322 13.516 25.1207 13.7572C25.0917 13.7717 25.0655 13.7906 25.0365 13.8037C25.0263 13.8081 25.0147 13.8066 25.006 13.811C19.4346 16.4296 16.6954 20.9983 15.4514 25.6964C14.5446 19.814 12.6294 16.3511 10.8202 14.2251C9.51095 12.5279 8.22341 11.6283 7.47943 11.1198C7.34136 11.0253 6.92435 10.7405 6.7514 10.5675C6.46803 10.2842 6.46803 9.8235 6.7514 9.54013C7.03477 9.2582 7.49687 9.2582 7.81218 9.57208C7.88923 9.6404 8.01272 9.72759 8.16966 9.83222L8.29902 9.91941C9.35108 10.6402 11.31 11.9785 13.0479 14.8601C13.2034 15.1173 13.5042 15.2554 13.7963 15.2002C14.0928 15.1479 14.3252 14.9197 14.3834 14.6247C14.7627 12.6877 14.5927 9.81328 12.8649 8.0855C10.069 5.2925 4.59789 4.96847 0.726671 4.96847C0.32553 4.9684 0 5.29393 0 5.695C0 9.56765 0.324032 15.0388 3.11846 17.8347C4.28387 19.0001 6.08147 19.5233 7.86736 19.5233C9.32486 19.5233 10.7533 19.1585 11.8476 18.5264C13.3399 21.6187 14.5316 26.2383 14.5316 33.305C14.5316 33.7061 14.8571 34.0316 15.2582 34.0316C15.6592 34.0316 15.9848 33.7061 15.9848 33.305C15.9848 29.3626 16.6605 24.6311 19.173 20.7366C20.18 21.7205 21.9137 22.3439 23.8347 22.402C23.9306 22.4049 24.0251 22.4063 24.1195 22.4063C26.0711 22.4063 27.796 21.7946 28.8815 20.7076C31.6773 17.9117 31.9999 12.4405 31.9999 8.56783C32.0015 8.16683 31.6774 7.8428 31.2749 7.8428Z" fill="#00B307"/>
    <path d="M46.048 11.204V17.732H53.728V20.708H46.048V27.524H54.688V30.5H42.4V8.228H54.688V11.204H46.048ZM57.0052 21.668C57.0052 19.8547 57.3679 18.2653 58.0933 16.9C58.8399 15.5133 59.8639 14.4467 61.1653 13.7C62.4666 12.9533 63.9599 12.58 65.6453 12.58C67.7786 12.58 69.5386 13.092 70.9253 14.116C72.3333 15.1187 73.2826 16.5587 73.7733 18.436H69.8373C69.5173 17.5613 69.0053 16.8787 68.3013 16.388C67.5973 15.8973 66.7119 15.652 65.6453 15.652C64.1519 15.652 62.9573 16.1853 62.0613 17.252C61.1866 18.2973 60.7493 19.7693 60.7493 21.668C60.7493 23.5667 61.1866 25.0493 62.0613 26.116C62.9573 27.1827 64.1519 27.716 65.6453 27.716C67.7573 27.716 69.1546 26.788 69.8373 24.932H73.7733C73.2613 26.724 72.3013 28.1533 70.8933 29.22C69.4853 30.2653 67.7359 30.788 65.6453 30.788C63.9599 30.788 62.4666 30.4147 61.1653 29.668C59.8639 28.9 58.8399 27.8333 58.0933 26.468C57.3679 25.0813 57.0052 23.4813 57.0052 21.668ZM84.0968 30.788C82.4328 30.788 80.9288 30.4147 79.5848 29.668C78.2408 28.9 77.1848 27.8333 76.4168 26.468C75.6488 25.0813 75.2648 23.4813 75.2648 21.668C75.2648 19.876 75.6594 18.2867 76.4488 16.9C77.2381 15.5133 78.3154 14.4467 79.6808 13.7C81.0461 12.9533 82.5714 12.58 84.2568 12.58C85.9421 12.58 87.4674 12.9533 88.8328 13.7C90.1981 14.4467 91.2754 15.5133 92.0648 16.9C92.8541 18.2867 93.2488 19.876 93.2488 21.668C93.2488 23.46 92.8434 25.0493 92.0328 26.436C91.2221 27.8227 90.1128 28.9 88.7048 29.668C87.3181 30.4147 85.7821 30.788 84.0968 30.788ZM84.0968 27.62C85.0354 27.62 85.9101 27.396 86.7208 26.948C87.5528 26.5 88.2248 25.828 88.7368 24.932C89.2488 24.036 89.5048 22.948 89.5048 21.668C89.5048 20.388 89.2594 19.3107 88.7688 18.436C88.2781 17.54 87.6274 16.868 86.8168 16.42C86.0061 15.972 85.1314 15.748 84.1928 15.748C83.2541 15.748 82.3794 15.972 81.5688 16.42C80.7794 16.868 80.1501 17.54 79.6808 18.436C79.2114 19.3107 78.9768 20.388 78.9768 21.668C78.9768 23.5667 79.4568 25.0387 80.4168 26.084C81.3981 27.108 82.6248 27.62 84.0968 27.62ZM99.543 15.492C100.162 14.6387 101.004 13.9453 102.071 13.412C103.159 12.8573 104.364 12.58 105.687 12.58C107.244 12.58 108.652 12.9533 109.911 13.7C111.17 14.4467 112.162 15.5133 112.887 16.9C113.612 18.2653 113.975 19.8333 113.975 21.604C113.975 23.3747 113.612 24.964 112.887 26.372C112.162 27.7587 111.159 28.8467 109.879 29.636C108.62 30.404 107.223 30.788 105.687 30.788C104.322 30.788 103.106 30.5213 102.039 29.988C100.994 29.4547 100.162 28.772 99.543 27.94V30.5H95.895V6.82H99.543V15.492ZM110.263 21.604C110.263 20.388 110.007 19.3427 109.495 18.468C109.004 17.572 108.343 16.9 107.511 16.452C106.7 15.9827 105.826 15.748 104.887 15.748C103.97 15.748 103.095 15.9827 102.263 16.452C101.452 16.9213 100.791 17.604 100.279 18.5C99.7883 19.396 99.543 20.452 99.543 21.668C99.543 22.884 99.7883 23.9507 100.279 24.868C100.791 25.764 101.452 26.4467 102.263 26.916C103.095 27.3853 103.97 27.62 104.887 27.62C105.826 27.62 106.7 27.3853 107.511 26.916C108.343 26.4253 109.004 25.7213 109.495 24.804C110.007 23.8867 110.263 22.82 110.263 21.604ZM115.407 21.604C115.407 19.8333 115.769 18.2653 116.495 16.9C117.241 15.5347 118.244 14.4787 119.503 13.732C120.783 12.964 122.191 12.58 123.727 12.58C125.113 12.58 126.319 12.8573 127.343 13.412C128.388 13.9453 129.22 14.6173 129.839 15.428V12.868H133.519V30.5H129.839V27.876C129.22 28.708 128.377 29.4013 127.311 29.956C126.244 30.5107 125.028 30.788 123.663 30.788C122.148 30.788 120.761 30.404 119.503 29.636C118.244 28.8467 117.241 27.7587 116.495 26.372C115.769 24.964 115.407 23.3747 115.407 21.604ZM129.839 21.668C129.839 20.452 129.583 19.396 129.071 18.5C128.58 17.604 127.929 16.9213 127.119 16.452C126.308 15.9827 125.433 15.748 124.495 15.748C123.556 15.748 122.681 15.9827 121.871 16.452C121.06 16.9 120.399 17.572 119.887 18.468C119.396 19.3427 119.151 20.388 119.151 21.604C119.151 22.82 119.396 23.8867 119.887 24.804C120.399 25.7213 121.06 26.4253 121.871 26.916C122.703 27.3853 123.577 27.62 124.495 27.62C125.433 27.62 126.308 27.3853 127.119 26.916C127.929 26.4467 128.58 25.764 129.071 24.868C129.583 23.9507 129.839 22.884 129.839 21.668ZM140.582 27.524H148.582V30.5H136.358V27.524L144.39 15.844H136.358V12.868H148.582V15.844L140.582 27.524ZM150.236 21.604C150.236 19.8333 150.599 18.2653 151.324 16.9C152.071 15.5347 153.074 14.4787 154.332 13.732C155.612 12.964 157.02 12.58 158.556 12.58C159.943 12.58 161.148 12.8573 162.172 13.412C163.218 13.9453 164.05 14.6173 164.668 15.428V12.868H168.348V30.5H164.668V27.876C164.05 28.708 163.207 29.4013 162.14 29.956C161.074 30.5107 159.858 30.788 158.492 30.788C156.978 30.788 155.591 30.404 154.332 29.636C153.074 28.8467 152.071 27.7587 151.324 26.372C150.599 24.964 150.236 23.3747 150.236 21.604ZM164.668 21.668C164.668 20.452 164.412 19.396 163.9 18.5C163.41 17.604 162.759 16.9213 161.948 16.452C161.138 15.9827 160.263 15.748 159.324 15.748C158.386 15.748 157.511 15.9827 156.7 16.452C155.89 16.9 155.228 17.572 154.716 18.468C154.226 19.3427 153.98 20.388 153.98 21.604C153.98 22.82 154.226 23.8867 154.716 24.804C155.228 25.7213 155.89 26.4253 156.7 26.916C157.532 27.3853 158.407 27.62 159.324 27.62C160.263 27.62 161.138 27.3853 161.948 26.916C162.759 26.4467 163.41 25.764 163.9 24.868C164.412 23.9507 164.668 22.884 164.668 21.668ZM175.828 15.428C176.361 14.532 177.065 13.8387 177.94 13.348C178.836 12.836 179.892 12.58 181.108 12.58V16.356H180.18C178.751 16.356 177.663 16.7187 176.916 17.444C176.191 18.1693 175.828 19.428 175.828 21.22V30.5H172.18V12.868H175.828V15.428Z" fill="#002603"/>
  </symbol>

  <symbol id="heart" width="32" height="33" viewBox="0 0 32 33" fill="none" xmlns="http://www.w3.org/2000/svg">
    <path d="M15.9995 28.5722C-10.6667 13.8333 7.99999 -2.16666 15.9995 7.95075C24 -2.16666 42.6666 13.8333 15.9995 28.5722Z" stroke="#1A1A1A" stroke-width="1.5"/>
  </symbol>

  <symbol id="cart" width="37" height="38" viewBox="0 0 37 38" fill="none">
    <path d="M11.3333 17.6667H7.08333L4.25 33.25H29.75L26.9167 17.6667H22.6667M11.3333 17.6667V13.4167C11.3333 10.2871 13.8704 7.75 17 7.75V7.75C20.1296 7.75 22.6667 10.2871 22.6667 13.4167V17.6667M11.3333 17.6667H22.6667M11.3333 17.6667V21.9167M22.6667 17.6667V21.9167" stroke="#1A1A1A" stroke-width="1.5" stroke-linecap="round" stroke-linejoin="round"/>
    <rect x="17.5" y="1" width="19" height="19" rx="9.5" fill="#2C742F"/>
    <rect x="17.5" y="1" width="19" height="19" rx="9.5" stroke="white"/>
    <path d="M25.3443 12.45C25.9843 11.8967 26.4876 11.4433 26.8543 11.09C27.2276 10.73 27.5376 10.3567 27.7843 9.97C28.0309 9.58333 28.1543 9.19667 28.1543 8.81C28.1543 8.41 28.0576 8.09667 27.8643 7.87C27.6776 7.64333 27.3809 7.53 26.9743 7.53C26.5809 7.53 26.2743 7.65667 26.0543 7.91C25.8409 8.15667 25.7276 8.49 25.7143 8.91H24.6143C24.6343 8.15 24.8609 7.57 25.2943 7.17C25.7343 6.76333 26.2909 6.56 26.9643 6.56C27.6909 6.56 28.2576 6.76 28.6643 7.16C29.0776 7.56 29.2843 8.09333 29.2843 8.76C29.2843 9.24 29.1609 9.70333 28.9143 10.15C28.6743 10.59 28.3843 10.9867 28.0443 11.34C27.7109 11.6867 27.2843 12.09 26.7643 12.55L26.3143 12.95H29.4843V13.9H24.6243V13.07L25.3443 12.45Z" fill="white"/>
  </symbol>

  <symbol id="phone" width="28" height="28" viewBox="0 0 28 28" fill="none">
    <path d="M17.436 4.375C18.9194 4.77396 20.2719 5.55567 21.3581 6.64184C22.4442 7.72801 23.226 9.08051 23.6249 10.5639" stroke="#1A1A1A" stroke-width="1.5" stroke-linecap="round" stroke-linejoin="round"/>
    <path d="M16.5308 7.75687C17.4206 7.99625 18.2319 8.46521 18.8835 9.11678C19.535 9.76835 20.004 10.5797 20.2434 11.4695" stroke="#1A1A1A" stroke-width="1.5" stroke-linecap="round" stroke-linejoin="round"/>
    <path d="M10.115 13.6517C11.0224 15.5074 12.5263 17.0049 14.3859 17.9042C14.522 17.9688 14.6727 17.9966 14.8229 17.9851C14.9731 17.9736 15.1178 17.9231 15.2425 17.8386L17.9812 16.0134C18.1022 15.9326 18.2414 15.8833 18.3862 15.8698C18.5311 15.8564 18.677 15.8793 18.8107 15.9364L23.9339 18.1326C24.1079 18.2065 24.2532 18.335 24.3479 18.4987C24.4426 18.6623 24.4815 18.8523 24.4589 19.04C24.2967 20.307 23.6784 21.4714 22.7196 22.3154C21.7608 23.1593 20.5273 23.6249 19.25 23.625C15.3049 23.625 11.5214 22.0578 8.73179 19.2682C5.94218 16.4786 4.375 12.6951 4.375 8.75C4.37512 7.47279 4.84074 6.23941 5.68471 5.28077C6.52867 4.32213 7.6931 3.70396 8.96 3.542C9.14771 3.51936 9.33769 3.55832 9.50134 3.653C9.66499 3.74769 9.79345 3.89298 9.86738 4.067L12.0654 9.1945C12.1219 9.32698 12.1449 9.47137 12.1322 9.61485C12.1195 9.75833 12.0716 9.89647 11.9928 10.017L10.1728 12.7977C10.0901 12.923 10.0414 13.0675 10.0313 13.2171C10.0212 13.3668 10.05 13.5165 10.115 13.6517V13.6517Z" stroke="#1A1A1A" stroke-width="1.5" stroke-linecap="round" stroke-linejoin="round"/>
  </symbol>

  <symbol id="rating" width="98" height="18" viewBox="0 0 98 18" fill="none">
    <path d="M9.31008 13.4111L12.8566 15.6577C13.31 15.9446 13.8725 15.5177 13.7381 14.9884L12.7138 10.9581C12.6848 10.8458 12.6882 10.7276 12.7234 10.6172C12.7586 10.5067 12.8243 10.4085 12.9129 10.3337L16.0933 7.68711C16.5106 7.33949 16.2958 6.64593 15.7586 6.61105L11.6056 6.34105C11.4938 6.33312 11.3866 6.29359 11.2964 6.22707C11.2061 6.16055 11.1367 6.06977 11.096 5.9653L9.5469 2.06493C9.50472 1.95408 9.42984 1.85867 9.33219 1.79136C9.23455 1.72404 9.11875 1.68799 9.00015 1.68799C8.88155 1.68799 8.76575 1.72404 8.6681 1.79136C8.57046 1.85867 8.49558 1.95408 8.4534 2.06493L6.90427 5.9653C6.86372 6.06988 6.79429 6.16077 6.70406 6.2274C6.61383 6.29402 6.50652 6.33364 6.39465 6.34161L2.24171 6.61161C1.70508 6.64593 1.48908 7.33949 1.90702 7.68711L5.0874 10.3342C5.17588 10.409 5.2415 10.5072 5.27673 10.6175C5.31195 10.7278 5.31534 10.8459 5.28652 10.9581L4.33702 14.6959C4.17558 15.3309 4.85115 15.8434 5.39452 15.4986L8.69077 13.4111C8.78342 13.3522 8.89093 13.3209 9.00071 13.3209C9.11049 13.3209 9.218 13.3522 9.31065 13.4111H9.31008Z" fill="#FF8A00"/>
    <path d="M29.3101 13.4111L32.8566 15.6577C33.31 15.9446 33.8725 15.5177 33.7381 14.9884L32.7138 10.9581C32.6848 10.8458 32.6882 10.7276 32.7234 10.6172C32.7586 10.5067 32.8243 10.4085 32.9129 10.3337L36.0933 7.68711C36.5106 7.33949 36.2958 6.64593 35.7586 6.61105L31.6056 6.34105C31.4938 6.33312 31.3866 6.29359 31.2964 6.22707C31.2061 6.16055 31.1367 6.06977 31.096 5.9653L29.5469 2.06493C29.5047 1.95408 29.4298 1.85867 29.3322 1.79136C29.2345 1.72404 29.1187 1.68799 29.0001 1.68799C28.8815 1.68799 28.7657 1.72404 28.6681 1.79136C28.5705 1.85867 28.4956 1.95408 28.4534 2.06493L26.9043 5.9653C26.8637 6.06988 26.7943 6.16077 26.7041 6.2274C26.6138 6.29402 26.5065 6.33364 26.3946 6.34161L22.2417 6.61161C21.7051 6.64593 21.4891 7.33949 21.907 7.68711L25.0874 10.3342C25.1759 10.409 25.2415 10.5072 25.2767 10.6175C25.3119 10.7278 25.3153 10.8459 25.2865 10.9581L24.337 14.6959C24.1756 15.3309 24.8511 15.8434 25.3945 15.4986L28.6908 13.4111C28.7834 13.3522 28.8909 13.3209 29.0007 13.3209C29.1105 13.3209 29.218 13.3522 29.3106 13.4111H29.3101Z" fill="#FF8A00"/>
    <path d="M49.3101 13.4111L52.8566 15.6577C53.31 15.9446 53.8725 15.5177 53.7381 14.9884L52.7138 10.9581C52.6848 10.8458 52.6882 10.7276 52.7234 10.6172C52.7586 10.5067 52.8243 10.4085 52.9129 10.3337L56.0933 7.68711C56.5106 7.33949 56.2958 6.64593 55.7586 6.61105L51.6056 6.34105C51.4938 6.33312 51.3866 6.29359 51.2964 6.22707C51.2061 6.16055 51.1367 6.06977 51.096 5.9653L49.5469 2.06493C49.5047 1.95408 49.4298 1.85867 49.3322 1.79136C49.2345 1.72404 49.1187 1.68799 49.0001 1.68799C48.8815 1.68799 48.7657 1.72404 48.6681 1.79136C48.5705 1.85867 48.4956 1.95408 48.4534 2.06493L46.9043 5.9653C46.8637 6.06988 46.7943 6.16077 46.7041 6.2274C46.6138 6.29402 46.5065 6.33364 46.3946 6.34161L42.2417 6.61161C41.7051 6.64593 41.4891 7.33949 41.907 7.68711L45.0874 10.3342C45.1759 10.409 45.2415 10.5072 45.2767 10.6175C45.3119 10.7278 45.3153 10.8459 45.2865 10.9581L44.337 14.6959C44.1756 15.3309 44.8511 15.8434 45.3945 15.4986L48.6908 13.4111C48.7834 13.3522 48.8909 13.3209 49.0007 13.3209C49.1105 13.3209 49.218 13.3522 49.3106 13.4111H49.3101Z" fill="#FF8A00"/>
    <path d="M69.3101 13.4111L72.8566 15.6577C73.31 15.9446 73.8725 15.5177 73.7381 14.9884L72.7138 10.9581C72.6848 10.8458 72.6882 10.7276 72.7234 10.6172C72.7586 10.5067 72.8243 10.4085 72.9129 10.3337L76.0933 7.68711C76.5106 7.33949 76.2958 6.64593 75.7586 6.61105L71.6056 6.34105C71.4938 6.33312 71.3866 6.29359 71.2964 6.22707C71.2061 6.16055 71.1367 6.06977 71.096 5.9653L69.5469 2.06493C69.5047 1.95408 69.4298 1.85867 69.3322 1.79136C69.2345 1.72404 69.1187 1.68799 69.0001 1.68799C68.8815 1.68799 68.7657 1.72404 68.6681 1.79136C68.5705 1.85867 68.4956 1.95408 68.4534 2.06493L66.9043 5.9653C66.8637 6.06988 66.7943 6.16077 66.7041 6.2274C66.6138 6.29402 66.5065 6.33364 66.3946 6.34161L62.2417 6.61161C61.7051 6.64593 61.4891 7.33949 61.907 7.68711L65.0874 10.3342C65.1759 10.409 65.2415 10.5072 65.2767 10.6175C65.3119 10.7278 65.3153 10.8459 65.2865 10.9581L64.337 14.6959C64.1756 15.3309 64.8511 15.8434 65.3945 15.4986L68.6908 13.4111C68.7834 13.3522 68.8909 13.3209 69.0007 13.3209C69.1105 13.3209 69.218 13.3522 69.3106 13.4111H69.3101Z" fill="#FF8A00"/>
    <path d="M89.3101 13.4111L92.8566 15.6577C93.31 15.9446 93.8725 15.5177 93.7381 14.9884L92.7138 10.9581C92.6848 10.8458 92.6882 10.7276 92.7234 10.6172C92.7586 10.5067 92.8243 10.4085 92.9129 10.3337L96.0933 7.68711C96.5106 7.33949 96.2958 6.64593 95.7586 6.61105L91.6056 6.34105C91.4938 6.33312 91.3866 6.29359 91.2964 6.22707C91.2061 6.16055 91.1367 6.06977 91.096 5.9653L89.5469 2.06493C89.5047 1.95408 89.4298 1.85867 89.3322 1.79136C89.2345 1.72404 89.1187 1.68799 89.0001 1.68799C88.8815 1.68799 88.7657 1.72404 88.6681 1.79136C88.5705 1.85867 88.4956 1.95408 88.4534 2.06493L86.9043 5.9653C86.8637 6.06988 86.7943 6.16077 86.7041 6.2274C86.6138 6.29402 86.5065 6.33364 86.3946 6.34161L82.2417 6.61161C81.7051 6.64593 81.4891 7.33949 81.907 7.68711L85.0874 10.3342C85.1759 10.409 85.2415 10.5072 85.2767 10.6175C85.3119 10.7278 85.3153 10.8459 85.2865 10.9581L84.337 14.6959C84.1756 15.3309 84.8511 15.8434 85.3945 15.4986L88.6908 13.4111C88.7834 13.3522 88.8909 13.3209 89.0007 13.3209C89.1105 13.3209 89.218 13.3522 89.3106 13.4111H89.3101Z" fill="#CCCCCC"/>
  </symbol>

  <symbol id="add-to-cart" width="50" height="50" viewBox="0 0 50 50" fill="none">
    <rect width="50" height="50" rx="25" fill="#00B307"/>
    <path d="M21 23H18L16 34H34L32 23H29M21 23V20C21 17.7909 22.7909 16 25 16V16C27.2091 16 29 17.7909 29 20V23M21 23H29M21 23V26M29 23V26" stroke="white" stroke-width="1.3" stroke-linecap="round" stroke-linejoin="round"/>
  </symbol>

  <symbol id="add-to-cart-alt" width="50" height="50" viewBox="0 0 50 50" fill="none">
    <rect width="50" height="50" rx="25" fill="#DAE6DA"/>
    <path d="M21 23H18L16 34H34L32 23H29M21 23V20C21 17.7909 22.7909 16 25 16V16C27.2091 16 29 17.7909 29 20V23M21 23H29M21 23V26M29 23V26" stroke="#002603" stroke-width="1.3" stroke-linecap="round" stroke-linejoin="round"/>
  </symbol>

  <symbol id="payment-method" width="277" height="32" viewBox="0 0 277 32" fill="none">
    <rect x="0.5" y="0.5" width="44" height="30.7647" rx="4.79412" fill="#002603" stroke="#173B1A"/>
    <path fill-rule="evenodd" clip-rule="evenodd" d="M12.5076 11.0424C12.1299 11.5081 11.5255 11.8755 10.9212 11.823C10.8456 11.1932 11.1415 10.5241 11.4877 10.1109C11.8655 9.632 12.5265 9.29089 13.0615 9.26465C13.1245 9.92063 12.879 10.5635 12.5076 11.0424ZM13.0545 11.9476C12.522 11.9157 12.0362 12.1144 11.6438 12.275C11.3913 12.3783 11.1775 12.4658 11.0148 12.4658C10.8322 12.4658 10.6096 12.3736 10.3596 12.2702C10.032 12.1345 9.65749 11.9795 9.26475 11.9869C8.36453 12.0001 7.52727 12.5314 7.06773 13.3776C6.12345 15.0701 6.82221 17.5759 7.73502 18.9535C8.18197 19.6357 8.71707 20.3835 9.42213 20.3573C9.73231 20.3451 9.95544 20.2464 10.1864 20.1443C10.4522 20.0268 10.7284 19.9046 11.1596 19.9046C11.5759 19.9046 11.84 20.0236 12.0935 20.1377C12.3345 20.2463 12.566 20.3505 12.9097 20.3441C13.6399 20.331 14.0995 19.6619 14.5464 18.9797C15.0288 18.2475 15.2407 17.5329 15.2729 17.4245L15.2767 17.4119C15.2759 17.4111 15.2699 17.4083 15.2594 17.4032C15.0982 17.3263 13.8658 16.7384 13.8539 15.1619C13.8421 13.8386 14.8315 13.1682 14.9872 13.0627C14.9967 13.0562 15.0031 13.0519 15.006 13.0496C14.3764 12.0788 13.3944 11.9738 13.0545 11.9476ZM18.1112 20.2721V10.0453H21.7938C23.695 10.0453 25.0233 11.4098 25.0233 13.4039C25.0233 15.3981 23.6698 16.7757 21.7435 16.7757H19.6346V20.2721H18.1112ZM19.6311 11.3834H21.3875C22.7095 11.3834 23.4649 12.1181 23.4649 13.4104C23.4649 14.7027 22.7095 15.4439 21.3812 15.4439H19.6311V11.3834ZM30.0531 19.0453C29.6502 19.8456 28.7625 20.3507 27.8057 20.3507C26.3893 20.3507 25.4009 19.4717 25.4009 18.1466C25.4009 16.8346 26.3578 16.0802 28.1267 15.9687L30.0279 15.8507V15.2865C30.0279 14.4534 29.5054 14.0008 28.5737 14.0008C27.8057 14.0008 27.2454 14.4141 27.1321 15.0438H25.7597C25.8038 13.7187 26.9999 12.7544 28.6178 12.7544C30.3615 12.7544 31.4947 13.7056 31.4947 15.1816V20.272H30.0845V19.0453H30.0531ZM28.213 19.1372C27.4009 19.1372 26.8847 18.7305 26.8847 18.1073C26.8847 17.4645 27.382 17.0906 28.3326 17.0315L30.026 16.92V17.4973C30.026 18.455 29.2454 19.1372 28.213 19.1372ZM36.1713 20.6721C35.5607 22.4629 34.8619 23.0533 33.3763 23.0533C33.263 23.0533 32.8853 23.0402 32.7971 23.014V21.7873C32.8916 21.8004 33.1245 21.8135 33.2441 21.8135C33.9177 21.8135 34.2954 21.5183 34.5283 20.7508L34.6668 20.2982L32.0858 12.8528H33.6784L35.4726 18.8944H35.5041L37.2982 12.8528H38.8468L36.1713 20.6721Z" fill="white"/>
    <rect x="53.5" y="0.5" width="44" height="30.7647" rx="4.79412" fill="#002603" stroke="#173B1A"/>
    <path fill-rule="evenodd" clip-rule="evenodd" d="M67.2279 20.989H64.5017L62.4575 12.9607C62.3605 12.5913 62.1544 12.2649 61.8514 12.111C61.0951 11.7243 60.2617 11.4165 59.3525 11.2613V10.9522H63.7441C64.3502 10.9522 64.8048 11.4165 64.8806 11.9558L65.9412 17.7469L68.666 10.9522H71.3164L67.2279 20.989ZM72.8307 20.989H70.2561L72.3762 10.9522H74.9508L72.8307 20.989ZM78.2811 13.7327C78.3568 13.1921 78.8114 12.883 79.3417 12.883C80.1751 12.8054 81.0829 12.9606 81.8406 13.346L82.2951 11.185C81.5375 10.8759 80.7041 10.7207 79.9478 10.7207C77.449 10.7207 75.6307 12.1109 75.6307 14.0404C75.6307 15.5083 76.9187 16.279 77.8278 16.7433C78.8114 17.2063 79.1902 17.5154 79.1144 17.9783C79.1144 18.6728 78.3568 18.9819 77.6005 18.9819C76.6914 18.9819 75.7822 18.7504 74.9502 18.3637L74.4956 20.526C75.4047 20.9114 76.3883 21.0666 77.2975 21.0666C80.0994 21.1429 81.8406 19.7539 81.8406 17.6693C81.8406 15.044 78.2811 14.8901 78.2811 13.7327ZM90.8509 20.989L88.8066 10.9522H86.6108C86.1562 10.9522 85.7016 11.2613 85.5501 11.7243L81.7646 20.989H84.415L84.944 19.5225H88.2005L88.5035 20.989H90.8509ZM86.9904 13.655L87.7467 17.4377H85.6267L86.9904 13.655Z" fill="white"/>
    <rect x="106.5" y="0.5" width="44" height="30.7647" rx="4.79412" fill="#002603" stroke="#173B1A"/>
    <path d="M124.531 30.6762L149.678 23.0659V26.7056C149.678 28.8985 147.901 30.6762 145.708 30.6762H124.531Z" fill="#FD6020"/>
    <path fill-rule="evenodd" clip-rule="evenodd" d="M144.906 12.0583C146.289 12.0583 147.05 12.6983 147.05 13.9072C147.119 14.8316 146.497 15.6138 145.666 15.756L147.534 18.387H146.082L144.491 15.8271H144.352V18.387H143.176V12.0583H144.906ZM144.35 14.9738H144.696C145.457 14.9738 145.803 14.6183 145.803 13.9783C145.803 13.4094 145.457 13.0539 144.696 13.0539H144.35V14.9738ZM139.097 18.387H142.417V17.3204H140.273V15.6138H142.348V14.5471H140.273V13.125H142.417V12.0583H139.097V18.387ZM135.636 16.3249L134.045 12.0583H132.8L135.359 18.5293H135.982L138.541 12.0583H137.296L135.636 16.3249ZM121.596 15.2582C121.596 17.036 122.98 18.5293 124.709 18.5293C125.263 18.5293 125.747 18.3871 126.231 18.1737V16.7515C125.885 17.1782 125.401 17.4626 124.848 17.4626C123.741 17.4626 122.842 16.6093 122.842 15.4716V15.3294C122.772 14.1916 123.672 13.1961 124.778 13.125C125.332 13.125 125.885 13.4094 126.231 13.8361V12.4139C125.816 12.1294 125.263 12.0583 124.778 12.0583C122.98 11.9161 121.596 13.4094 121.596 15.2582ZM119.45 14.476C118.759 14.1916 118.551 14.0494 118.551 13.6938C118.62 13.2672 118.966 12.9116 119.381 12.9828C119.727 12.9828 120.073 13.1961 120.35 13.4805L120.972 12.6272C120.488 12.2005 119.866 11.9161 119.243 11.9161C118.275 11.845 117.444 12.6272 117.375 13.6227V13.6938C117.375 14.5472 117.721 15.0449 118.828 15.4005C119.105 15.4716 119.381 15.6138 119.658 15.756C119.866 15.8982 120.004 16.1116 120.004 16.396C120.004 16.8938 119.589 17.3204 119.174 17.3204H119.105C118.551 17.3204 118.067 16.9649 117.859 16.4671L117.099 17.2493C117.514 18.0315 118.344 18.4582 119.174 18.4582C120.281 18.5293 121.18 17.676 121.249 16.5382V16.3249C121.18 15.4716 120.834 15.0449 119.45 14.476ZM115.439 18.387H116.615V12.0583H115.439V18.387ZM109.976 12.0583H111.705H112.051C113.711 12.1294 115.026 13.5516 114.957 15.2582C114.957 16.1826 114.542 17.036 113.85 17.6759C113.227 18.1737 112.466 18.4581 111.705 18.387H109.976V12.0583ZM111.496 17.3205C112.049 17.3916 112.671 17.1782 113.087 16.8227C113.502 16.396 113.709 15.8272 113.709 15.1872C113.709 14.6183 113.502 14.0494 113.087 13.6228C112.671 13.2672 112.049 13.0539 111.496 13.125H111.15V17.3205H111.496Z" fill="white"/>
    <path fill-rule="evenodd" clip-rule="evenodd" d="M129.755 11.9116C128.026 11.9116 126.573 13.3338 126.573 15.1826C126.573 16.9604 127.957 18.4537 129.755 18.5248C131.554 18.5959 132.937 17.1026 133.006 15.2538C132.937 13.4049 131.554 11.9116 129.755 11.9116V11.9116Z" fill="#FD6020"/>
    <rect x="159.5" y="0.5" width="44" height="30.7647" rx="4.79412" fill="#002603" stroke="#173B1A"/>
    <path fill-rule="evenodd" clip-rule="evenodd" d="M181.737 22.2741C180.17 23.5951 178.137 24.3925 175.916 24.3925C170.959 24.3925 166.941 20.4223 166.941 15.5249C166.941 10.6274 170.959 6.65723 175.916 6.65723C178.137 6.65723 180.17 7.45469 181.737 8.77568C183.304 7.45471 185.337 6.65727 187.559 6.65727C192.515 6.65727 196.533 10.6274 196.533 15.5249C196.533 20.4224 192.515 24.3926 187.559 24.3926C185.337 24.3926 183.304 23.5951 181.737 22.2741Z" fill="#ED0006"/>
    <path fill-rule="evenodd" clip-rule="evenodd" d="M181.737 22.274C183.666 20.6475 184.89 18.2274 184.89 15.5249C184.89 12.8224 183.666 10.4022 181.737 8.77576C183.304 7.45472 185.337 6.65723 187.558 6.65723C192.515 6.65723 196.533 10.6274 196.533 15.5249C196.533 20.4223 192.515 24.3925 187.558 24.3925C185.337 24.3925 183.304 23.595 181.737 22.274Z" fill="#F9A000"/>
    <path fill-rule="evenodd" clip-rule="evenodd" d="M181.735 22.2741C183.665 20.6476 184.888 18.2275 184.888 15.525C184.888 12.8225 183.665 10.4024 181.735 8.77588C179.806 10.4024 178.582 12.8225 178.582 15.525C178.582 18.2275 179.806 20.6476 181.735 22.2741Z" fill="#FF5E00"/>
    <rect x="212.5" y="0.5" width="64" height="31" rx="4.79412" fill="#002603" stroke="#173B1A"/>
    <g clip-path="url(#clip0_2261_14697)">
        <rect width="11" height="11" transform="translate(217 4)" fill="#002603"/>
        <path d="M225.708 9.04199H219.292C218.785 9.04199 218.375 9.4524 218.375 9.95866V13.167C218.375 13.6733 218.785 14.0837 219.292 14.0837H225.708C226.215 14.0837 226.625 13.6733 226.625 13.167V9.95866C226.625 9.4524 226.215 9.04199 225.708 9.04199Z" stroke="white" stroke-width="0.916667" stroke-linecap="round" stroke-linejoin="round"/>
        <path d="M220.208 9.04199V7.20866C220.208 6.60087 220.45 6.01798 220.88 5.58821C221.309 5.15843 221.892 4.91699 222.5 4.91699C223.108 4.91699 223.691 5.15843 224.121 5.58821C224.55 6.01798 224.792 6.60087 224.792 7.20866V9.04199" stroke="white" stroke-width="0.916667" stroke-linecap="round" stroke-linejoin="round"/>
    </g>
    <path d="M233.278 13.077C232.772 13.077 232.317 12.989 231.914 12.813C231.518 12.6297 231.206 12.3803 230.979 12.065C230.752 11.7423 230.634 11.372 230.627 10.954H231.694C231.731 11.3133 231.877 11.6177 232.134 11.867C232.398 12.109 232.779 12.23 233.278 12.23C233.755 12.23 234.129 12.1127 234.4 11.878C234.679 11.636 234.818 11.328 234.818 10.954C234.818 10.6607 234.737 10.4223 234.576 10.239C234.415 10.0557 234.213 9.91633 233.971 9.821C233.729 9.72567 233.403 9.623 232.992 9.513C232.486 9.381 232.079 9.249 231.771 9.117C231.47 8.985 231.21 8.77967 230.99 8.501C230.777 8.215 230.671 7.83367 230.671 7.357C230.671 6.939 230.777 6.56867 230.99 6.246C231.203 5.92333 231.5 5.674 231.881 5.498C232.27 5.322 232.713 5.234 233.212 5.234C233.931 5.234 234.517 5.41367 234.972 5.773C235.434 6.13233 235.694 6.609 235.753 7.203H234.653C234.616 6.90967 234.462 6.653 234.191 6.433C233.92 6.20567 233.56 6.092 233.113 6.092C232.695 6.092 232.354 6.202 232.09 6.422C231.826 6.63467 231.694 6.93533 231.694 7.324C231.694 7.60267 231.771 7.83 231.925 8.006C232.086 8.182 232.281 8.31767 232.508 8.413C232.743 8.501 233.069 8.60367 233.487 8.721C233.993 8.86033 234.4 8.99967 234.708 9.139C235.016 9.271 235.28 9.48 235.5 9.766C235.72 10.0447 235.83 10.426 235.83 10.91C235.83 11.284 235.731 11.636 235.533 11.966C235.335 12.296 235.042 12.5637 234.653 12.769C234.264 12.9743 233.806 13.077 233.278 13.077ZM242.803 9.755C242.803 9.94567 242.792 10.1473 242.77 10.36H237.952C237.989 10.954 238.19 11.4197 238.557 11.757C238.931 12.087 239.382 12.252 239.91 12.252C240.343 12.252 240.702 12.153 240.988 11.955C241.281 11.7497 241.487 11.4783 241.604 11.141H242.682C242.521 11.7203 242.198 12.1933 241.714 12.56C241.23 12.9193 240.629 13.099 239.91 13.099C239.338 13.099 238.825 12.9707 238.37 12.714C237.923 12.4573 237.571 12.0943 237.314 11.625C237.057 11.1483 236.929 10.5983 236.929 9.975C236.929 9.35167 237.054 8.80533 237.303 8.336C237.552 7.86667 237.901 7.50733 238.348 7.258C238.803 7.00133 239.323 6.873 239.91 6.873C240.482 6.873 240.988 6.99767 241.428 7.247C241.868 7.49633 242.205 7.841 242.44 8.281C242.682 8.71367 242.803 9.205 242.803 9.755ZM241.769 9.546C241.769 9.16467 241.685 8.83833 241.516 8.567C241.347 8.28833 241.116 8.07933 240.823 7.94C240.537 7.79333 240.218 7.72 239.866 7.72C239.36 7.72 238.927 7.88133 238.568 8.204C238.216 8.52667 238.014 8.974 237.963 9.546H241.769ZM243.75 9.975C243.75 9.35167 243.875 8.809 244.124 8.347C244.374 7.87767 244.718 7.51467 245.158 7.258C245.606 7.00133 246.115 6.873 246.687 6.873C247.428 6.873 248.037 7.05267 248.513 7.412C248.997 7.77133 249.316 8.27 249.47 8.908H248.392C248.29 8.54133 248.088 8.25167 247.787 8.039C247.494 7.82633 247.127 7.72 246.687 7.72C246.115 7.72 245.653 7.918 245.301 8.314C244.949 8.70267 244.773 9.25633 244.773 9.975C244.773 10.701 244.949 11.262 245.301 11.658C245.653 12.054 246.115 12.252 246.687 12.252C247.127 12.252 247.494 12.1493 247.787 11.944C248.081 11.7387 248.282 11.4453 248.392 11.064H249.47C249.309 11.68 248.986 12.175 248.502 12.549C248.018 12.9157 247.413 13.099 246.687 13.099C246.115 13.099 245.606 12.9707 245.158 12.714C244.718 12.4573 244.374 12.0943 244.124 11.625C243.875 11.1557 243.75 10.6057 243.75 9.975ZM256.152 6.972V13H255.151V12.109C254.96 12.417 254.693 12.659 254.348 12.835C254.011 13.0037 253.637 13.088 253.226 13.088C252.757 13.088 252.335 12.9927 251.961 12.802C251.587 12.604 251.29 12.3107 251.07 11.922C250.857 11.5333 250.751 11.0603 250.751 10.503V6.972H251.741V10.371C251.741 10.965 251.891 11.4233 252.192 11.746C252.493 12.0613 252.903 12.219 253.424 12.219C253.959 12.219 254.381 12.054 254.689 11.724C254.997 11.394 255.151 10.9137 255.151 10.283V6.972H256.152ZM258.843 7.951C259.019 7.60633 259.268 7.33867 259.591 7.148C259.921 6.95733 260.321 6.862 260.79 6.862V7.896H260.526C259.404 7.896 258.843 8.50467 258.843 9.722V13H257.842V6.972H258.843V7.951ZM267.446 9.755C267.446 9.94567 267.435 10.1473 267.413 10.36H262.595C262.631 10.954 262.833 11.4197 263.2 11.757C263.574 12.087 264.025 12.252 264.553 12.252C264.985 12.252 265.345 12.153 265.631 11.955C265.924 11.7497 266.129 11.4783 266.247 11.141H267.325C267.163 11.7203 266.841 12.1933 266.357 12.56C265.873 12.9193 265.271 13.099 264.553 13.099C263.981 13.099 263.467 12.9707 263.013 12.714C262.565 12.4573 262.213 12.0943 261.957 11.625C261.7 11.1483 261.572 10.5983 261.572 9.975C261.572 9.35167 261.696 8.80533 261.946 8.336C262.195 7.86667 262.543 7.50733 262.991 7.258C263.445 7.00133 263.966 6.873 264.553 6.873C265.125 6.873 265.631 6.99767 266.071 7.247C266.511 7.49633 266.848 7.841 267.083 8.281C267.325 8.71367 267.446 9.205 267.446 9.755ZM266.412 9.546C266.412 9.16467 266.327 8.83833 266.159 8.567C265.99 8.28833 265.759 8.07933 265.466 7.94C265.18 7.79333 264.861 7.72 264.509 7.72C264.003 7.72 263.57 7.88133 263.211 8.204C262.859 8.52667 262.657 8.974 262.606 9.546H266.412Z" fill="white"/>
    <path d="M223.803 20.216C223.803 20.664 223.695 21.084 223.479 21.476C223.271 21.868 222.939 22.184 222.483 22.424C222.035 22.664 221.467 22.784 220.779 22.784H219.375V26H217.695V17.624H220.779C221.427 17.624 221.979 17.736 222.435 17.96C222.891 18.184 223.231 18.492 223.455 18.884C223.687 19.276 223.803 19.72 223.803 20.216ZM220.707 21.428C221.171 21.428 221.515 21.324 221.739 21.116C221.963 20.9 222.075 20.6 222.075 20.216C222.075 19.4 221.619 18.992 220.707 18.992H219.375V21.428H220.707ZM224.564 22.652C224.564 21.98 224.696 21.384 224.96 20.864C225.232 20.344 225.596 19.944 226.052 19.664C226.516 19.384 227.032 19.244 227.6 19.244C228.096 19.244 228.528 19.344 228.896 19.544C229.272 19.744 229.572 19.996 229.796 20.3V19.352H231.488V26H229.796V25.028C229.58 25.34 229.28 25.6 228.896 25.808C228.52 26.008 228.084 26.108 227.588 26.108C227.028 26.108 226.516 25.964 226.052 25.676C225.596 25.388 225.232 24.984 224.96 24.464C224.696 23.936 224.564 23.332 224.564 22.652ZM229.796 22.676C229.796 22.268 229.716 21.92 229.556 21.632C229.396 21.336 229.18 21.112 228.908 20.96C228.636 20.8 228.344 20.72 228.032 20.72C227.72 20.72 227.432 20.796 227.168 20.948C226.904 21.1 226.688 21.324 226.52 21.62C226.36 21.908 226.28 22.252 226.28 22.652C226.28 23.052 226.36 23.404 226.52 23.708C226.688 24.004 226.904 24.232 227.168 24.392C227.44 24.552 227.728 24.632 228.032 24.632C228.344 24.632 228.636 24.556 228.908 24.404C229.18 24.244 229.396 24.02 229.556 23.732C229.716 23.436 229.796 23.084 229.796 22.676ZM239.489 19.352L235.373 29.144H233.585L235.025 25.832L232.361 19.352H234.245L235.961 23.996L237.701 19.352H239.489ZM248.65 19.256C249.466 19.256 250.122 19.508 250.618 20.012C251.122 20.508 251.374 21.204 251.374 22.1V26H249.694V22.328C249.694 21.808 249.562 21.412 249.298 21.14C249.034 20.86 248.674 20.72 248.218 20.72C247.762 20.72 247.398 20.86 247.126 21.14C246.862 21.412 246.73 21.808 246.73 22.328V26H245.05V22.328C245.05 21.808 244.918 21.412 244.654 21.14C244.39 20.86 244.03 20.72 243.574 20.72C243.11 20.72 242.742 20.86 242.47 21.14C242.206 21.412 242.074 21.808 242.074 22.328V26H240.394V19.352H242.074V20.156C242.29 19.876 242.566 19.656 242.902 19.496C243.246 19.336 243.622 19.256 244.03 19.256C244.55 19.256 245.014 19.368 245.422 19.592C245.83 19.808 246.146 20.12 246.37 20.528C246.586 20.144 246.898 19.836 247.306 19.604C247.722 19.372 248.17 19.256 248.65 19.256ZM259.149 22.532C259.149 22.772 259.133 22.988 259.101 23.18H254.241C254.281 23.66 254.449 24.036 254.745 24.308C255.041 24.58 255.405 24.716 255.837 24.716C256.461 24.716 256.905 24.448 257.169 23.912H258.981C258.789 24.552 258.421 25.08 257.877 25.496C257.333 25.904 256.665 26.108 255.873 26.108C255.233 26.108 254.657 25.968 254.145 25.688C253.641 25.4 253.245 24.996 252.957 24.476C252.677 23.956 252.537 23.356 252.537 22.676C252.537 21.988 252.677 21.384 252.957 20.864C253.237 20.344 253.629 19.944 254.133 19.664C254.637 19.384 255.217 19.244 255.873 19.244C256.505 19.244 257.069 19.38 257.565 19.652C258.069 19.924 258.457 20.312 258.729 20.816C259.009 21.312 259.149 21.884 259.149 22.532ZM257.409 22.052C257.401 21.62 257.245 21.276 256.941 21.02C256.637 20.756 256.265 20.624 255.825 20.624C255.409 20.624 255.057 20.752 254.769 21.008C254.489 21.256 254.317 21.604 254.253 22.052H257.409ZM264.059 19.256C264.851 19.256 265.491 19.508 265.979 20.012C266.467 20.508 266.711 21.204 266.711 22.1V26H265.031V22.328C265.031 21.8 264.899 21.396 264.635 21.116C264.371 20.828 264.011 20.684 263.555 20.684C263.091 20.684 262.723 20.828 262.451 21.116C262.187 21.396 262.055 21.8 262.055 22.328V26H260.375V19.352H262.055V20.18C262.279 19.892 262.563 19.668 262.907 19.508C263.259 19.34 263.643 19.256 264.059 19.256ZM270.264 20.732V23.948C270.264 24.172 270.316 24.336 270.42 24.44C270.532 24.536 270.716 24.584 270.972 24.584H271.752V26H270.696C269.28 26 268.572 25.312 268.572 23.936V20.732H267.78V19.352H268.572V17.708H270.264V19.352H271.752V20.732H270.264Z" fill="white"/>
    <defs>
        <clipPath id="clip0_2261_14697">
        <rect width="11" height="11" fill="white" transform="translate(217 4)"/>
        </clipPath>
    </defs>
  </symbol>

  <symbol id="vector" width="40" height="32" viewBox="0 0 40 32" fill="none">
    <path fill-rule="evenodd" clip-rule="evenodd" d="M29.7778 0C25.5446 0 22.1063 3.2701 22.1063 7.30289C22.1063 11.3332 25.5446 14.6058 29.7778 14.6058C37.0505 14.6058 32.8361 27.2874 23.6638 28.6084C23.231 28.6691 22.836 28.8711 22.5504 29.1779C22.2647 29.4847 22.1072 29.8759 22.1063 30.2808C22.1063 31.3177 23.1087 32.1377 24.2189 31.9807C40.8902 29.6427 46.8183 0.00249227 29.7778 0.00249227V0ZM7.67416 0C3.43559 0 0 3.26761 0 7.30289C0 11.3307 3.43559 14.6008 7.67416 14.6008C14.9441 14.6008 10.7298 27.2874 1.55747 28.6084C1.12515 28.669 0.730538 28.8707 0.444914 29.177C0.159289 29.4832 0.00148353 29.8739 0 30.2783C0 31.3152 1.00238 32.1352 2.10986 31.9782C18.7866 29.6402 24.7147 0 7.67416 0Z" fill="#00B307"/>
  </symbol>

  <symbol id="applePay" width="45" height="32" viewBox="0 0 45 32" fill="none">
    <rect x="0.5" y="0.5" width="44" height="30.7647" rx="4.79412" fill="#002603" stroke="#173B1A"/>
    <path fill-rule="evenodd" clip-rule="evenodd" d="M12.5076 11.0424C12.1299 11.5081 11.5255 11.8755 10.9212 11.823C10.8456 11.1932 11.1415 10.5241 11.4877 10.1109C11.8655 9.632 12.5265 9.29089 13.0615 9.26465C13.1245 9.92063 12.879 10.5635 12.5076 11.0424ZM13.0545 11.9476C12.522 11.9157 12.0362 12.1144 11.6438 12.275C11.3913 12.3783 11.1775 12.4658 11.0148 12.4658C10.8322 12.4658 10.6096 12.3736 10.3596 12.2702C10.032 12.1345 9.65749 11.9795 9.26475 11.9869C8.36453 12.0001 7.52727 12.5314 7.06773 13.3776C6.12345 15.0701 6.82221 17.5759 7.73502 18.9535C8.18197 19.6357 8.71707 20.3835 9.42213 20.3573C9.73231 20.3451 9.95544 20.2464 10.1864 20.1443C10.4522 20.0268 10.7284 19.9046 11.1596 19.9046C11.5759 19.9046 11.84 20.0236 12.0935 20.1377C12.3345 20.2463 12.566 20.3505 12.9097 20.3441C13.6399 20.331 14.0995 19.6619 14.5464 18.9797C15.0288 18.2475 15.2407 17.5329 15.2729 17.4245L15.2767 17.4119C15.2759 17.4111 15.2699 17.4083 15.2594 17.4032C15.0982 17.3263 13.8658 16.7384 13.8539 15.1619C13.8421 13.8386 14.8315 13.1682 14.9872 13.0627C14.9967 13.0562 15.0031 13.0519 15.006 13.0496C14.3764 12.0788 13.3944 11.9738 13.0545 11.9476ZM18.1112 20.2721V10.0453H21.7938C23.695 10.0453 25.0233 11.4098 25.0233 13.4039C25.0233 15.3981 23.6698 16.7757 21.7435 16.7757H19.6346V20.2721H18.1112ZM19.6311 11.3834H21.3875C22.7095 11.3834 23.4649 12.1181 23.4649 13.4104C23.4649 14.7027 22.7095 15.4439 21.3812 15.4439H19.6311V11.3834ZM30.0531 19.0453C29.6502 19.8456 28.7625 20.3507 27.8057 20.3507C26.3893 20.3507 25.4009 19.4717 25.4009 18.1466C25.4009 16.8346 26.3578 16.0802 28.1267 15.9687L30.0279 15.8507V15.2865C30.0279 14.4534 29.5054 14.0008 28.5737 14.0008C27.8057 14.0008 27.2454 14.4141 27.1321 15.0438H25.7597C25.8038 13.7187 26.9999 12.7544 28.6178 12.7544C30.3615 12.7544 31.4947 13.7056 31.4947 15.1816V20.272H30.0845V19.0453H30.0531ZM28.213 19.1372C27.4009 19.1372 26.8847 18.7305 26.8847 18.1073C26.8847 17.4645 27.382 17.0906 28.3326 17.0315L30.026 16.92V17.4973C30.026 18.455 29.2454 19.1372 28.213 19.1372ZM36.1713 20.6721C35.5607 22.4629 34.8619 23.0533 33.3763 23.0533C33.263 23.0533 32.8853 23.0402 32.7971 23.014V21.7873C32.8916 21.8004 33.1245 21.8135 33.2441 21.8135C33.9177 21.8135 34.2954 21.5183 34.5283 20.7508L34.6668 20.2982L32.0858 12.8528H33.6784L35.4726 18.8944H35.5041L37.2982 12.8528H38.8468L36.1713 20.6721Z" fill="white"/>
  </symbol>

  <symbol id="visa" width="45" height="32" viewBox="0 0 45 32" fill="none">
    <rect x="0.5" y="0.5" width="44" height="30.7647" rx="4.79412" fill="#002603" stroke="#173B1A"/>
    <path fill-rule="evenodd" clip-rule="evenodd" d="M14.2279 20.989H11.5017L9.45748 12.9607C9.36045 12.5913 9.15443 12.2649 8.85138 12.111C8.09508 11.7243 7.26169 11.4165 6.35254 11.2613V10.9522H10.7441C11.3502 10.9522 11.8048 11.4165 11.8806 11.9558L12.9412 17.7469L15.666 10.9522H18.3164L14.2279 20.989ZM19.8307 20.989H17.2561L19.3762 10.9522H21.9508L19.8307 20.989ZM25.2811 13.7327C25.3568 13.1921 25.8114 12.883 26.3417 12.883C27.1751 12.8054 28.0829 12.9606 28.8406 13.346L29.2951 11.185C28.5375 10.8759 27.7041 10.7207 26.9478 10.7207C24.449 10.7207 22.6307 12.1109 22.6307 14.0404C22.6307 15.5083 23.9187 16.279 24.8278 16.7433C25.8114 17.2063 26.1902 17.5154 26.1144 17.9783C26.1144 18.6728 25.3568 18.9819 24.6005 18.9819C23.6914 18.9819 22.7822 18.7504 21.9502 18.3637L21.4956 20.526C22.4047 20.9114 23.3883 21.0666 24.2975 21.0666C27.0994 21.1429 28.8406 19.7539 28.8406 17.6693C28.8406 15.044 25.2811 14.8901 25.2811 13.7327ZM37.8509 20.989L35.8066 10.9522H33.6108C33.1562 10.9522 32.7016 11.2613 32.5501 11.7243L28.7646 20.989H31.415L31.944 19.5225H35.2005L35.5035 20.989H37.8509ZM33.9904 13.655L34.7467 17.4377H32.6267L33.9904 13.655Z" fill="white"/>
  </symbol>

  <symbol id="secure" width="65" height="32" viewBox="0 0 65 32" fill="none">
    <rect x="0.5" y="0.5" width="64" height="31" rx="4.79412" fill="#002603" stroke="#173B1A"/>
    <g clip-path="url(#clip0_2299_14749)">
    <rect width="11" height="11" transform="translate(5 4)" fill="#002603"/>
    <path d="M13.7083 9.04199H7.29167C6.78541 9.04199 6.375 9.4524 6.375 9.95866V13.167C6.375 13.6733 6.78541 14.0837 7.29167 14.0837H13.7083C14.2146 14.0837 14.625 13.6733 14.625 13.167V9.95866C14.625 9.4524 14.2146 9.04199 13.7083 9.04199Z" stroke="white" stroke-width="0.916667" stroke-linecap="round" stroke-linejoin="round"/>
    <path d="M8.2085 9.04199V7.20866C8.2085 6.60087 8.44994 6.01798 8.87971 5.58821C9.30948 5.15843 9.89237 4.91699 10.5002 4.91699C11.108 4.91699 11.6908 5.15843 12.1206 5.58821C12.5504 6.01798 12.7918 6.60087 12.7918 7.20866V9.04199" stroke="white" stroke-width="0.916667" stroke-linecap="round" stroke-linejoin="round"/>
    </g>
    <path d="M21.278 13.077C20.772 13.077 20.3173 12.989 19.914 12.813C19.518 12.6297 19.2063 12.3803 18.979 12.065C18.7517 11.7423 18.6343 11.372 18.627 10.954H19.694C19.7307 11.3133 19.8773 11.6177 20.134 11.867C20.398 12.109 20.7793 12.23 21.278 12.23C21.7547 12.23 22.1287 12.1127 22.4 11.878C22.6787 11.636 22.818 11.328 22.818 10.954C22.818 10.6607 22.7373 10.4223 22.576 10.239C22.4147 10.0557 22.213 9.91633 21.971 9.821C21.729 9.72567 21.4027 9.623 20.992 9.513C20.486 9.381 20.079 9.249 19.771 9.117C19.4703 8.985 19.21 8.77967 18.99 8.501C18.7773 8.215 18.671 7.83367 18.671 7.357C18.671 6.939 18.7773 6.56867 18.99 6.246C19.2027 5.92333 19.4997 5.674 19.881 5.498C20.2697 5.322 20.7133 5.234 21.212 5.234C21.9307 5.234 22.5173 5.41367 22.972 5.773C23.434 6.13233 23.6943 6.609 23.753 7.203H22.653C22.6163 6.90967 22.4623 6.653 22.191 6.433C21.9197 6.20567 21.5603 6.092 21.113 6.092C20.695 6.092 20.354 6.202 20.09 6.422C19.826 6.63467 19.694 6.93533 19.694 7.324C19.694 7.60267 19.771 7.83 19.925 8.006C20.0863 8.182 20.2807 8.31767 20.508 8.413C20.7427 8.501 21.069 8.60367 21.487 8.721C21.993 8.86033 22.4 8.99967 22.708 9.139C23.016 9.271 23.28 9.48 23.5 9.766C23.72 10.0447 23.83 10.426 23.83 10.91C23.83 11.284 23.731 11.636 23.533 11.966C23.335 12.296 23.0417 12.5637 22.653 12.769C22.2643 12.9743 21.806 13.077 21.278 13.077ZM30.8031 9.755C30.8031 9.94567 30.7921 10.1473 30.7701 10.36H25.9521C25.9887 10.954 26.1904 11.4197 26.5571 11.757C26.9311 12.087 27.3821 12.252 27.9101 12.252C28.3427 12.252 28.7021 12.153 28.9881 11.955C29.2814 11.7497 29.4867 11.4783 29.6041 11.141H30.6821C30.5207 11.7203 30.1981 12.1933 29.7141 12.56C29.2301 12.9193 28.6287 13.099 27.9101 13.099C27.3381 13.099 26.8247 12.9707 26.3701 12.714C25.9227 12.4573 25.5707 12.0943 25.3141 11.625C25.0574 11.1483 24.9291 10.5983 24.9291 9.975C24.9291 9.35167 25.0537 8.80533 25.3031 8.336C25.5524 7.86667 25.9007 7.50733 26.3481 7.258C26.8027 7.00133 27.3234 6.873 27.9101 6.873C28.4821 6.873 28.9881 6.99767 29.4281 7.247C29.8681 7.49633 30.2054 7.841 30.4401 8.281C30.6821 8.71367 30.8031 9.205 30.8031 9.755ZM29.7691 9.546C29.7691 9.16467 29.6847 8.83833 29.5161 8.567C29.3474 8.28833 29.1164 8.07933 28.8231 7.94C28.5371 7.79333 28.2181 7.72 27.8661 7.72C27.3601 7.72 26.9274 7.88133 26.5681 8.204C26.2161 8.52667 26.0144 8.974 25.9631 9.546H29.7691ZM31.7503 9.975C31.7503 9.35167 31.875 8.809 32.1243 8.347C32.3737 7.87767 32.7183 7.51467 33.1583 7.258C33.6057 7.00133 34.1153 6.873 34.6873 6.873C35.428 6.873 36.0367 7.05267 36.5133 7.412C36.9973 7.77133 37.3163 8.27 37.4703 8.908H36.3923C36.2897 8.54133 36.088 8.25167 35.7873 8.039C35.494 7.82633 35.1273 7.72 34.6873 7.72C34.1153 7.72 33.6533 7.918 33.3013 8.314C32.9493 8.70267 32.7733 9.25633 32.7733 9.975C32.7733 10.701 32.9493 11.262 33.3013 11.658C33.6533 12.054 34.1153 12.252 34.6873 12.252C35.1273 12.252 35.494 12.1493 35.7873 11.944C36.0807 11.7387 36.2823 11.4453 36.3923 11.064H37.4703C37.309 11.68 36.9863 12.175 36.5023 12.549C36.0183 12.9157 35.4133 13.099 34.6873 13.099C34.1153 13.099 33.6057 12.9707 33.1583 12.714C32.7183 12.4573 32.3737 12.0943 32.1243 11.625C31.875 11.1557 31.7503 10.6057 31.7503 9.975ZM44.152 6.972V13H43.151V12.109C42.9603 12.417 42.6927 12.659 42.348 12.835C42.0107 13.0037 41.6367 13.088 41.226 13.088C40.7567 13.088 40.335 12.9927 39.961 12.802C39.587 12.604 39.29 12.3107 39.07 11.922C38.8573 11.5333 38.751 11.0603 38.751 10.503V6.972H39.741V10.371C39.741 10.965 39.8913 11.4233 40.192 11.746C40.4927 12.0613 40.9033 12.219 41.424 12.219C41.9593 12.219 42.381 12.054 42.689 11.724C42.997 11.394 43.151 10.9137 43.151 10.283V6.972H44.152ZM46.8431 7.951C47.0191 7.60633 47.2685 7.33867 47.5911 7.148C47.9211 6.95733 48.3208 6.862 48.7901 6.862V7.896H48.5261C47.4041 7.896 46.8431 8.50467 46.8431 9.722V13H45.8421V6.972H46.8431V7.951ZM55.4456 9.755C55.4456 9.94567 55.4346 10.1473 55.4126 10.36H50.5946C50.6313 10.954 50.833 11.4197 51.1996 11.757C51.5736 12.087 52.0246 12.252 52.5526 12.252C52.9853 12.252 53.3446 12.153 53.6306 11.955C53.924 11.7497 54.1293 11.4783 54.2466 11.141H55.3246C55.1633 11.7203 54.8406 12.1933 54.3566 12.56C53.8726 12.9193 53.2713 13.099 52.5526 13.099C51.9806 13.099 51.4673 12.9707 51.0126 12.714C50.5653 12.4573 50.2133 12.0943 49.9566 11.625C49.7 11.1483 49.5716 10.5983 49.5716 9.975C49.5716 9.35167 49.6963 8.80533 49.9456 8.336C50.195 7.86667 50.5433 7.50733 50.9906 7.258C51.4453 7.00133 51.966 6.873 52.5526 6.873C53.1246 6.873 53.6306 6.99767 54.0706 7.247C54.5106 7.49633 54.848 7.841 55.0826 8.281C55.3246 8.71367 55.4456 9.205 55.4456 9.755ZM54.4116 9.546C54.4116 9.16467 54.3273 8.83833 54.1586 8.567C53.99 8.28833 53.759 8.07933 53.4656 7.94C53.1796 7.79333 52.8606 7.72 52.5086 7.72C52.0026 7.72 51.57 7.88133 51.2106 8.204C50.8586 8.52667 50.657 8.974 50.6056 9.546H54.4116Z" fill="white"/>
    <path d="M11.8032 20.216C11.8032 20.664 11.6952 21.084 11.4792 21.476C11.2712 21.868 10.9392 22.184 10.4832 22.424C10.0352 22.664 9.46719 22.784 8.77919 22.784H7.37519V26H5.69519V17.624H8.77919C9.42719 17.624 9.97919 17.736 10.4352 17.96C10.8912 18.184 11.2312 18.492 11.4552 18.884C11.6872 19.276 11.8032 19.72 11.8032 20.216ZM8.70719 21.428C9.17119 21.428 9.51519 21.324 9.73919 21.116C9.96319 20.9 10.0752 20.6 10.0752 20.216C10.0752 19.4 9.61919 18.992 8.70719 18.992H7.37519V21.428H8.70719ZM12.564 22.652C12.564 21.98 12.696 21.384 12.96 20.864C13.232 20.344 13.596 19.944 14.052 19.664C14.516 19.384 15.032 19.244 15.6 19.244C16.096 19.244 16.528 19.344 16.896 19.544C17.272 19.744 17.572 19.996 17.796 20.3V19.352H19.488V26H17.796V25.028C17.58 25.34 17.28 25.6 16.896 25.808C16.52 26.008 16.084 26.108 15.588 26.108C15.028 26.108 14.516 25.964 14.052 25.676C13.596 25.388 13.232 24.984 12.96 24.464C12.696 23.936 12.564 23.332 12.564 22.652ZM17.796 22.676C17.796 22.268 17.716 21.92 17.556 21.632C17.396 21.336 17.18 21.112 16.908 20.96C16.636 20.8 16.344 20.72 16.032 20.72C15.72 20.72 15.432 20.796 15.168 20.948C14.904 21.1 14.688 21.324 14.52 21.62C14.36 21.908 14.28 22.252 14.28 22.652C14.28 23.052 14.36 23.404 14.52 23.708C14.688 24.004 14.904 24.232 15.168 24.392C15.44 24.552 15.728 24.632 16.032 24.632C16.344 24.632 16.636 24.556 16.908 24.404C17.18 24.244 17.396 24.02 17.556 23.732C17.716 23.436 17.796 23.084 17.796 22.676ZM27.4888 19.352L23.3728 29.144H21.5848L23.0248 25.832L20.3608 19.352H22.2448L23.9608 23.996L25.7008 19.352H27.4888ZM36.6504 19.256C37.4664 19.256 38.1224 19.508 38.6184 20.012C39.1224 20.508 39.3744 21.204 39.3744 22.1V26H37.6944V22.328C37.6944 21.808 37.5624 21.412 37.2984 21.14C37.0344 20.86 36.6744 20.72 36.2184 20.72C35.7624 20.72 35.3984 20.86 35.1264 21.14C34.8624 21.412 34.7304 21.808 34.7304 22.328V26H33.0504V22.328C33.0504 21.808 32.9184 21.412 32.6544 21.14C32.3904 20.86 32.0304 20.72 31.5744 20.72C31.1104 20.72 30.7424 20.86 30.4704 21.14C30.2064 21.412 30.0744 21.808 30.0744 22.328V26H28.3944V19.352H30.0744V20.156C30.2904 19.876 30.5664 19.656 30.9024 19.496C31.2464 19.336 31.6224 19.256 32.0304 19.256C32.5504 19.256 33.0144 19.368 33.4224 19.592C33.8304 19.808 34.1464 20.12 34.3704 20.528C34.5864 20.144 34.8984 19.836 35.3064 19.604C35.7224 19.372 36.1704 19.256 36.6504 19.256ZM47.1486 22.532C47.1486 22.772 47.1326 22.988 47.1006 23.18H42.2406C42.2806 23.66 42.4486 24.036 42.7446 24.308C43.0406 24.58 43.4046 24.716 43.8366 24.716C44.4606 24.716 44.9046 24.448 45.1686 23.912H46.9806C46.7886 24.552 46.4206 25.08 45.8766 25.496C45.3326 25.904 44.6646 26.108 43.8726 26.108C43.2326 26.108 42.6566 25.968 42.1446 25.688C41.6406 25.4 41.2446 24.996 40.9566 24.476C40.6766 23.956 40.5366 23.356 40.5366 22.676C40.5366 21.988 40.6766 21.384 40.9566 20.864C41.2366 20.344 41.6286 19.944 42.1326 19.664C42.6366 19.384 43.2166 19.244 43.8726 19.244C44.5046 19.244 45.0686 19.38 45.5646 19.652C46.0686 19.924 46.4566 20.312 46.7286 20.816C47.0086 21.312 47.1486 21.884 47.1486 22.532ZM45.4086 22.052C45.4006 21.62 45.2446 21.276 44.9406 21.02C44.6366 20.756 44.2646 20.624 43.8246 20.624C43.4086 20.624 43.0566 20.752 42.7686 21.008C42.4886 21.256 42.3166 21.604 42.2526 22.052H45.4086ZM52.0589 19.256C52.8509 19.256 53.4909 19.508 53.9789 20.012C54.4669 20.508 54.7109 21.204 54.7109 22.1V26H53.0309V22.328C53.0309 21.8 52.8989 21.396 52.6349 21.116C52.3709 20.828 52.0109 20.684 51.5549 20.684C51.0909 20.684 50.7229 20.828 50.4509 21.116C50.1869 21.396 50.0549 21.8 50.0549 22.328V26H48.3749V19.352H50.0549V20.18C50.2789 19.892 50.5629 19.668 50.9069 19.508C51.2589 19.34 51.6429 19.256 52.0589 19.256ZM58.2645 20.732V23.948C58.2645 24.172 58.3165 24.336 58.4205 24.44C58.5325 24.536 58.7165 24.584 58.9725 24.584H59.7525V26H58.6965C57.2805 26 56.5725 25.312 56.5725 23.936V20.732H55.7805V19.352H56.5725V17.708H58.2645V19.352H59.7525V20.732H58.2645Z" fill="white"/>
    <defs>
    <clipPath id="clip0_2299_14749">
    <rect width="11" height="11" fill="white" transform="translate(5 4)"/>
    </clipPath>
    </defs>
  </symbol>

  <symbol id="masterCard" width="45" height="32" viewBox="0 0 45 32" fill="none">
    <rect x="0.5" y="0.5" width="44" height="30.7647" rx="4.79412" fill="#002603" stroke="#173B1A"/>
    <path fill-rule="evenodd" clip-rule="evenodd" d="M22.7372 22.2741C21.17 23.5951 19.1372 24.3925 16.9158 24.3925C11.9594 24.3925 7.94141 20.4223 7.94141 15.5249C7.94141 10.6274 11.9594 6.65723 16.9158 6.65723C19.1372 6.65723 21.1701 7.45469 22.7372 8.77568C24.3044 7.45471 26.3372 6.65727 28.5585 6.65727C33.515 6.65727 37.533 10.6274 37.533 15.5249C37.533 20.4224 33.515 24.3926 28.5585 24.3926C26.3372 24.3926 24.3043 23.5951 22.7372 22.2741Z" fill="#ED0006"/>
    <path fill-rule="evenodd" clip-rule="evenodd" d="M22.7368 22.274C24.6663 20.6475 25.8898 18.2274 25.8898 15.5249C25.8898 12.8224 24.6663 10.4022 22.7368 8.77576C24.304 7.45472 26.3369 6.65723 28.5583 6.65723C33.5147 6.65723 37.5327 10.6274 37.5327 15.5249C37.5327 20.4223 33.5147 24.3925 28.5583 24.3925C26.3369 24.3925 24.304 23.595 22.7368 22.274Z" fill="#F9A000"/>
    <path fill-rule="evenodd" clip-rule="evenodd" d="M22.735 22.2741C24.6645 20.6476 25.888 18.2275 25.888 15.525C25.888 12.8225 24.6645 10.4024 22.735 8.77588C20.8055 10.4024 19.582 12.8225 19.582 15.525C19.582 18.2275 20.8055 20.6476 22.735 22.2741Z" fill="#FF5E00"/>
  </symbol>

  <symbol id="discover" width="45" height="32" viewBox="0 0 45 32" fill="none">
    <rect x="0.5" y="0.5" width="44" height="30.7647" rx="4.79412" fill="#002603" stroke="#173B1A"/>
    <path d="M18.5312 30.6762L43.6783 23.0659V26.7056C43.6783 28.8985 41.9006 30.6762 39.7077 30.6762H18.5312Z" fill="#FD6020"/>
    <path fill-rule="evenodd" clip-rule="evenodd" d="M38.9056 12.0583C40.289 12.0583 41.0499 12.6983 41.0499 13.9072C41.1191 14.8316 40.4966 15.6138 39.6665 15.756L41.5342 18.387H40.0815L38.4905 15.8271H38.3522V18.387H37.1762V12.0583H38.9056ZM38.3505 14.9738H38.6964C39.4573 14.9738 39.8031 14.6183 39.8031 13.9783C39.8031 13.4094 39.4573 13.0539 38.6964 13.0539H38.3505V14.9738ZM33.0971 18.387H36.4174V17.3204H34.273V15.6138H36.3482V14.5471H34.273V13.125H36.4174V12.0583H33.0971V18.387ZM29.6361 16.3249L28.0451 12.0583H26.7999L29.3594 18.5293H29.9819L32.5414 12.0583H31.2963L29.6361 16.3249ZM15.5965 15.2582C15.5965 17.036 16.98 18.5293 18.7093 18.5293C19.2627 18.5293 19.7469 18.3871 20.2311 18.1737V16.7515C19.8853 17.1782 19.401 17.4626 18.8477 17.4626C17.7409 17.4626 16.8416 16.6093 16.8416 15.4716V15.3294C16.7724 14.1916 17.6717 13.1961 18.7785 13.125C19.3319 13.125 19.8853 13.4094 20.2311 13.8361V12.4139C19.8161 12.1294 19.2627 12.0583 18.7785 12.0583C16.98 11.9161 15.5965 13.4094 15.5965 15.2582ZM13.4505 14.476C12.7587 14.1916 12.5512 14.0494 12.5512 13.6938C12.6204 13.2672 12.9662 12.9116 13.3813 12.9828C13.7272 12.9828 14.073 13.1961 14.3497 13.4805L14.9723 12.6272C14.4881 12.2005 13.8655 11.9161 13.2429 11.9161C12.2745 11.845 11.4444 12.6272 11.3752 13.6227V13.6938C11.3752 14.5472 11.7211 15.0449 12.8279 15.4005C13.1046 15.4716 13.3813 15.6138 13.658 15.756C13.8655 15.8982 14.0039 16.1116 14.0039 16.396C14.0039 16.8938 13.5888 17.3204 13.1738 17.3204H13.1046C12.5512 17.3204 12.067 16.9649 11.8595 16.4671L11.0985 17.2493C11.5136 18.0315 12.3437 18.4582 13.1738 18.4582C14.2805 18.5293 15.1798 17.676 15.249 16.5382V16.3249C15.1798 15.4716 14.8339 15.0449 13.4505 14.476ZM9.43896 18.387H10.6149V12.0583H9.43896V18.387ZM3.97607 12.0583H5.70542H6.05129C7.71146 12.1294 9.02577 13.5516 8.95659 15.2582C8.95659 16.1826 8.54155 17.036 7.84981 17.6759C7.22725 18.1737 6.46633 18.4581 5.70542 18.387H3.97607V12.0583ZM5.49554 17.3205C6.04893 17.3916 6.6715 17.1782 7.08654 16.8227C7.50158 16.396 7.70911 15.8272 7.70911 15.1872C7.70911 14.6183 7.50158 14.0494 7.08654 13.6228C6.6715 13.2672 6.04893 13.0539 5.49554 13.125H5.14967V17.3205H5.49554Z" fill="white"/>
    <path fill-rule="evenodd" clip-rule="evenodd" d="M23.7552 11.9116C22.0259 11.9116 20.5732 13.3338 20.5732 15.1826C20.5732 16.9604 21.9567 18.4537 23.7552 18.5248C25.5538 18.5959 26.9372 17.1026 27.0064 15.2538C26.9372 13.4049 25.5538 11.9116 23.7552 11.9116V11.9116Z" fill="#FD6020"/>
  </symbol>
</svg>
